<svg width="12" height="12" viewBox="0 0 12 12" fill="none" xmlns="http://www.w3.org/2000/svg">
<path d="M0.322547 0.322547C0.529136 0.11602 0.809294 0 1.10141 0C1.39353 0 1.67369 0.11602 1.88027 0.322547L5.77569 4.21797L9.67111 0.322547C9.87889 0.121873 10.1572 0.0108335 10.446 0.0133436C10.7349 0.0158536 11.0112 0.131713 11.2154 0.335967C11.4197 0.540221 11.5355 0.816527 11.538 1.10538C11.5406 1.39422 11.4295 1.6725 11.2288 1.88027L7.33342 5.77569L11.2288 9.67111C11.4295 9.87889 11.5406 10.1572 11.538 10.446C11.5355 10.7349 11.4197 11.0112 11.2154 11.2154C11.0112 11.4197 10.7349 11.5355 10.446 11.538C10.1572 11.5406 9.87889 11.4295 9.67111 11.2288L5.77569 7.33342L1.88027 11.2288C1.6725 11.4295 1.39422 11.5406 1.10538 11.538C0.816527 11.5355 0.540221 11.4197 0.335967 11.2154C0.131713 11.0112 0.0158536 10.7349 0.0133436 10.446C0.0108335 10.1572 0.121873 9.87889 0.322547 9.67111L4.21797 5.77569L0.322547 1.88027C0.11602 1.67369 0 1.39353 0 1.10141C0 0.809294 0.11602 0.529136 0.322547 0.322547Z" fill="#929292"/>
</svg>
